<svg xmlns="http://www.w3.org/2000/svg" width="97" height="97" viewBox="0 0 97 97"><g transform="translate(-179 -447)"><g transform="translate(179 447)" fill="#fff" stroke="#ff6565" stroke-width="2"><circle cx="48.5" cy="48.5" r="48.5" stroke="none"/><circle cx="48.5" cy="48.5" r="47.5" fill="none"/></g><g transform="translate(209 483)"><g transform="translate(0 0)"><path d="M38.987,22.8a.654.654,0,0,1-.551-1.186,8.894,8.894,0,0,1,.829-.325l-.572-8.069L32.99,16.2v11.3c.3-.431.571-.9.832-1.365l.061-.11a.654.654,0,0,1,1.14.64l-.061.109a16.253,16.253,0,0,1-1.034,1.677.654.654,0,0,1-.914.139c-.01-.007-.014-.018-.023-.025v8.993L40.2,34.416l-.835-11.767C39.237,22.7,39.11,22.739,38.987,22.8Zm-1.592.97a8.229,8.229,0,0,0-1.329,1.3.654.654,0,1,1-1.015-.825,9.553,9.553,0,0,1,1.541-1.511.653.653,0,1,1,.8,1.031Z" transform="translate(-13.385 -13.206)"/><path d="M54.956,36.839,52.025,25.027c-.635-.5-2.044-1.579-2.235-1.7a.654.654,0,0,1,.713-1.1c.128.083.547.4,1.015.756L50.06,17.11a.655.655,0,0,0-.306-.408l-6.035-3.5.549,7.74a.649.649,0,0,1,.195,1.283c-.034.006-.068.019-.1.026l.863,12.161,8.9,3.321a.645.645,0,0,0,.228.041h.013a.654.654,0,0,0,.591-.933ZM48.933,22.089a.653.653,0,0,1-.83.405,7.214,7.214,0,0,0-1.8-.374.653.653,0,0,1,.1-1.3,8.5,8.5,0,0,1,2.131.442A.653.653,0,0,1,48.933,22.089Z" transform="translate(-17.103 -13.2)"/><path d="M20.791,22.757a.635.635,0,0,1,.259.249c.232.431.424.878.61,1.31.081.188.162.377.246.564a.653.653,0,1,1-1.191.537c-.033-.073-.065-.148-.1-.222l-.654,9.22,7.206,3.137V30.127c-.024.006-.048.018-.072.023a3.054,3.054,0,0,1-.668.073A3.675,3.675,0,0,1,25.208,30a.654.654,0,0,1,.435-1.233,2.121,2.121,0,0,0,1.17.1,1.792,1.792,0,0,0,.319-.1c.012-.005.025,0,.037-.008V16.2l-5.7-2.978Zm2.06,3.724a9.165,9.165,0,0,0,1.286,1.366.654.654,0,0,1-.849.994,10.539,10.539,0,0,1-1.474-1.564.654.654,0,0,1,1.036-.8Z" transform="translate(-8.872 -13.206)"/><path d="M8.242,16.7a.655.655,0,0,0-.306.408L5.807,25.686c.291-.347.537-.645.594-.723a.654.654,0,1,1,1.056.771c-.11.151-.528.65-1.2,1.453-.441.524-1.029,1.224-1.168,1.4L3.009,36.96a.654.654,0,0,0,.634.811.645.645,0,0,0,.228-.041l8.9-3.321.856-12.065a.649.649,0,0,1-.676-.043,1.589,1.589,0,0,0-1.384-.231.654.654,0,0,1-.324-1.266,2.9,2.9,0,0,1,2.457.426l.005.005.57-8.035ZM10.05,22.9a11.092,11.092,0,0,0-1.371,1.316.654.654,0,0,1-.974-.872,12.377,12.377,0,0,1,1.536-1.47A.653.653,0,1,1,10.05,22.9Z" transform="translate(-2.99 -13.2)"/></g></g></g></svg>