<svg xmlns="http://www.w3.org/2000/svg" width="97" height="97" viewBox="0 0 97 97"><g transform="translate(-1090 -447)"><g transform="translate(1090 447)" fill="#fff" stroke="#ff6565" stroke-width="2"><circle cx="48.5" cy="48.5" r="48.5" stroke="none"/><circle cx="48.5" cy="48.5" r="47.5" fill="none"/></g><g transform="translate(1123 481)"><g transform="translate(0)"><path d="M49.632,41.464h0l.27.195V26.587L38.4,33.373Z" transform="translate(-18.535 -15.362)"/><path d="M10.973,17.47h-.281A2.7,2.7,0,0,0,8,20.163v1.745l2.973,1.751V17.47Z" transform="translate(-8 -12.203)"/><path d="M51.731,17.47H51.45v6.189l2.973-1.751V20.163A2.7,2.7,0,0,0,51.731,17.47Z" transform="translate(-23.055 -12.203)"/><path d="M38.332,45.62l-13.5-9.73a1.958,1.958,0,0,0-2.292,0l-13.5,9.73h0L8,46.367v.962a.654.654,0,0,0,.653.653H38.714a.653.653,0,0,0,.654-.653v-.962l-1.035-.746Z" transform="translate(-8 -18.457)"/><path d="M12.273,38.581,19.5,33.374,8,26.587V41.66l4.273-3.079Z" transform="translate(-8 -15.362)"/><path d="M26.733,18.579a.489.489,0,0,0-.216-.039,1.681,1.681,0,0,0-.706.183,1.812,1.812,0,0,0-1.006,1.353c-.059.451.176,1.176.647,1.242a.6.6,0,0,0,.516-.2,3.832,3.832,0,0,0,.876-2.392C26.8,18.612,26.759,18.586,26.733,18.579Z" transform="translate(-13.82 -12.574)"/><path d="M24.045,25.78a3.257,3.257,0,0,1,3.816,0l1.117.8,8.378-4.94v-9.62a.647.647,0,0,0-.653-.653H31.43V10.064a.655.655,0,0,0-.653-.653H15.2a.655.655,0,0,0-.653.653v11.58l8.378,4.94Zm7.5-11.077h2.79a.653.653,0,1,1,0,1.307h-2.79a.653.653,0,0,1,0-1.307Zm0,2.784h2.79a.653.653,0,1,1,0,1.307h-2.79a.653.653,0,0,1,0-1.307Zm-11.43,3.5a4.86,4.86,0,1,1,7.051-5.614.323.323,0,0,1,.026.085.093.093,0,0,1,.013.039.144.144,0,0,1,.007.052,3.177,3.177,0,0,1-.974,3.078A1.639,1.639,0,0,1,24.849,19a1.5,1.5,0,0,1-1-.771,3.064,3.064,0,0,1-.542.673,1.908,1.908,0,0,1-1.327.562,1.671,1.671,0,0,1-.255-.02,2.362,2.362,0,0,1-1.771-2.692,3.123,3.123,0,0,1,1.738-2.372,2.563,2.563,0,0,1,2.039-.157,1.521,1.521,0,0,1,.843,1.052.277.277,0,0,1,.013.072.293.293,0,0,1,.007.072,9.3,9.3,0,0,0,.17,1.287l.02.111a3.43,3.43,0,0,0,.19.745.3.3,0,0,0,.157.163.35.35,0,0,0,.274-.1,1.884,1.884,0,0,0,.529-1.81,3.547,3.547,0,1,0-2.477,4.372,4.026,4.026,0,0,0,.719-.288.653.653,0,0,1,.608,1.157,4.952,4.952,0,0,1-.974.386,4.71,4.71,0,0,1-1.307.183A4.827,4.827,0,0,1,20.118,20.99Z" transform="translate(-10.27 -9.41)"/></g></g></g></svg>