<svg xmlns="http://www.w3.org/2000/svg" width="22.342" height="22.337" viewBox="0 0 22.342 22.337"><path d="M11.1,37.267a5.727,5.727,0,1,0,5.727,5.727A5.718,5.718,0,0,0,11.1,37.267Zm0,9.45a3.723,3.723,0,1,1,3.723-3.723A3.73,3.73,0,0,1,11.1,46.717Zm7.3-9.684A1.336,1.336,0,1,1,17.06,35.7,1.333,1.333,0,0,1,18.4,37.032Zm3.793,1.356a6.61,6.61,0,0,0-1.8-4.68,6.654,6.654,0,0,0-4.68-1.8c-1.844-.1-7.372-.1-9.216,0a6.644,6.644,0,0,0-4.68,1.8A6.632,6.632,0,0,0,0,38.383c-.1,1.844-.1,7.372,0,9.216a6.61,6.61,0,0,0,1.8,4.68,6.662,6.662,0,0,0,4.68,1.8c1.844.1,7.372.1,9.216,0a6.61,6.61,0,0,0,4.68-1.8,6.654,6.654,0,0,0,1.8-4.68C22.293,45.755,22.293,40.232,22.188,38.388Zm-2.382,11.19A3.769,3.769,0,0,1,17.683,51.7c-1.47.583-4.959.449-6.584.449s-5.119.13-6.584-.449a3.769,3.769,0,0,1-2.123-2.123c-.583-1.47-.449-4.959-.449-6.584s-.13-5.119.449-6.584a3.769,3.769,0,0,1,2.123-2.123c1.47-.583,4.959-.449,6.584-.449s5.119-.13,6.584.449a3.769,3.769,0,0,1,2.123,2.123c.583,1.47.449,4.959.449,6.584S20.389,48.112,19.806,49.578Z" transform="translate(0.075 -31.825)" fill="#6e6e6e"/></svg>