<svg xmlns="http://www.w3.org/2000/svg" width="97" height="97" viewBox="0 0 97 97"><g transform="translate(-5272 -4287)"><g transform="translate(5272 4287)" fill="#fff" stroke="#ff6565" stroke-width="2"><circle cx="48.5" cy="48.5" r="48.5" stroke="none"/><circle cx="48.5" cy="48.5" r="47.5" fill="none"/></g><g transform="translate(5309.662 4320.121)"><g transform="translate(6.514)"><path d="M93.442,8.743a4.371,4.371,0,1,0-4.371-4.371A4.371,4.371,0,0,0,93.442,8.743Z" transform="translate(-89.071)"/><path d="M148.846,59.778" transform="translate(-144.475 -55.407)"/></g><path d="M10.878,137.252H6.257v-3.337l-3.534,3.557c-1.6,1.6-3.761-.451-2.161-2.05l5.851-5.863a2.381,2.381,0,0,1,1.818-.771h5.247a2.483,2.483,0,0,1,1.869.771l5.911,5.92a1.493,1.493,0,1,1-2.16,2.051L15.471,133.9v3.355H10.878Z" transform="translate(0 -119.371)"/><path d="M159.712,268.179l-3.473,3.473,2.55,2.545-2.613,2.613a1.537,1.537,0,1,0,2.18,2.153l4.132-4.3a2.607,2.607,0,0,0,.181-3.527Z" transform="translate(-144.26 -248.567)"/><path d="M40.388,268.179l3.473,3.473-2.55,2.545,2.613,2.613a1.537,1.537,0,1,1-2.18,2.153l-4.132-4.3a2.607,2.607,0,0,1-.181-3.527Z" transform="translate(-34.13 -248.567)"/></g></g></svg>