<svg xmlns="http://www.w3.org/2000/svg" width="96" height="97" viewBox="0 0 96 97"><g transform="translate(-4817 -4287)"><g transform="translate(4817 4287)" fill="#fff" stroke="#ff6565" stroke-width="2"><ellipse cx="48" cy="48.5" rx="48" ry="48.5" stroke="none"/><ellipse cx="48" cy="48.5" rx="47" ry="47.5" fill="none"/></g><path d="M44.336,57.058A11.97,11.97,0,0,0,53.58,37.407l5.095-5.095v2.547a1.092,1.092,0,0,0,2.184,0v-5.24a.545.545,0,0,0-.073-.364h0c-.146-.291-.291-.509-.582-.582h0a.791.791,0,0,0-.364-.073H54.672a1.092,1.092,0,0,0,0,2.184h2.547l-5.095,5.095A12.015,12.015,0,0,0,35.894,53.565,11.71,11.71,0,0,0,44.336,57.058ZM37.349,38.135a9.812,9.812,0,0,1,6.914-2.911,9.516,9.516,0,0,1,6.914,2.911,9.862,9.862,0,0,1-6.914,16.813,9.516,9.516,0,0,1-6.914-2.911A9.929,9.929,0,0,1,37.349,38.135Z" transform="translate(4819.794 4291.521)"/></g></svg>