<svg xmlns="http://www.w3.org/2000/svg" width="97" height="97" viewBox="0 0 97 97"><g transform="translate(-4361 -4287)"><g transform="translate(4361 4287)" fill="#fff" stroke="#ff6565" stroke-width="2"><circle cx="48.5" cy="48.5" r="48.5" stroke="none"/><circle cx="48.5" cy="48.5" r="47.5" fill="none"/></g><path d="M44.819,53.326v5.433H42.178a1.132,1.132,0,0,0,0,2.264h2.641v2.566a1.132,1.132,0,1,0,2.264,0V61.022h2.641a1.132,1.132,0,0,0,0-2.264H47.082V53.326a12.451,12.451,0,1,0-2.264,0Zm1.132-22.562A10.187,10.187,0,1,1,35.764,40.951,10.241,10.241,0,0,1,45.951,30.764Z" transform="translate(4364.072 4293.044)"/></g></svg>