<svg xmlns="http://www.w3.org/2000/svg" width="54.208" height="54.207" viewBox="0 0 54.208 54.207"><g transform="translate(68 17)"><g transform="translate(-68 -17)"><g transform="translate(0 0)"><path d="M52.486,31.507,35.845,48.148l-6.316-6.317A1.081,1.081,0,1,0,28,43.36l7.845,7.847L54.015,33.036a1.081,1.081,0,0,0-1.529-1.529ZM41.007,13.871a27.1,27.1,0,1,0,0,54.207h0a27.1,27.1,0,0,0,0-54.207Zm0,52.044h0a24.941,24.941,0,1,1,24.94-24.942A24.971,24.971,0,0,1,41.008,65.915Z" transform="translate(-13.903 -13.871)" fill="#ff6565"/></g></g></g></svg>