<svg xmlns="http://www.w3.org/2000/svg" width="96" height="97" viewBox="0 0 96 97"><g transform="translate(-635 -447)"><g transform="translate(635 447)" fill="#fff" stroke="#ff6565" stroke-width="2"><ellipse cx="48" cy="48.5" rx="48" ry="48.5" stroke="none"/><ellipse cx="48" cy="48.5" rx="47" ry="47.5" fill="none"/></g><g transform="translate(668 480)"><g transform="translate(0 0)"><path d="M36.546,32.138,32.313,29.18a3.266,3.266,0,0,0-4.551.81L26.779,31.4A36.387,36.387,0,0,1,21.542,27a36.339,36.339,0,0,1-4.4-5.237l1.408-.982a3.272,3.272,0,0,0,.81-4.552L16.4,11.995a3.272,3.272,0,0,0-2.67-1.413,3.06,3.06,0,0,0-1.064.19,5.9,5.9,0,0,0-1.1.54l-.585.412a4.478,4.478,0,0,0-.412.368,5.872,5.872,0,0,0-1.5,2.683c-1.219,4.568,1.8,11.476,7.512,17.187,4.8,4.8,10.559,7.777,15.038,7.777h0a8.365,8.365,0,0,0,2.148-.265,5.868,5.868,0,0,0,2.682-1.5,4.345,4.345,0,0,0,.388-.438l.412-.588a5.9,5.9,0,0,0,.521-1.072A3.216,3.216,0,0,0,36.546,32.138Z" transform="translate(-8.8 -9.418)"/><path d="M41.975,13.556A16.319,16.319,0,0,0,31.446,8.8a.654.654,0,0,0-.082,1.3A15.03,15.03,0,0,1,45.423,24.165a.654.654,0,0,0,.652.613h.041a.653.653,0,0,0,.611-.693A16.321,16.321,0,0,0,41.975,13.556Z" transform="translate(-16.406 -8.802)"/><path d="M30.99,16.1a11.109,11.109,0,0,1,10.39,10.39.653.653,0,0,0,.652.613h.041a.653.653,0,0,0,.611-.693A12.417,12.417,0,0,0,31.071,14.792a.654.654,0,1,0-.082,1.3Z" transform="translate(-16.276 -10.877)"/><path d="M30.615,22.084a7.188,7.188,0,0,1,6.722,6.721.653.653,0,0,0,.652.613h.041a.654.654,0,0,0,.611-.693A8.5,8.5,0,0,0,30.7,20.78a.654.654,0,1,0-.082,1.3Z" transform="translate(-16.146 -12.951)"/></g></g></g></svg>