<svg xmlns="http://www.w3.org/2000/svg" width="22.33" height="22.33" viewBox="0 0 22.33 22.33"><path d="M19.937,32H2.392A2.393,2.393,0,0,0,0,34.392V51.937A2.393,2.393,0,0,0,2.392,54.33H19.937a2.393,2.393,0,0,0,2.392-2.392V34.392A2.393,2.393,0,0,0,19.937,32ZM8.174,48.149a4.984,4.984,0,0,1,0-9.969,4.761,4.761,0,0,1,3.339,1.306l-1.351,1.3a2.8,2.8,0,0,0-1.984-.768,3.151,3.151,0,0,0,0,6.3,2.7,2.7,0,0,0,2.831-2.148H8.174V42.457h4.705a4.05,4.05,0,0,1,.08.827,4.594,4.594,0,0,1-4.785,4.865ZM19.14,44.072H17.694v1.445H16.239V44.072H14.793V42.616h1.445V41.171h1.455v1.445H19.14Z" transform="translate(0 -32)" fill="#ff6565"/></svg>